# xmcd
#
# Track frame offsets: 
#        151
#        15158
#        30027
#        44716
#        59603
#        73521
#        86937
#        101982
#        115376
#        125566
#        137835
#        151268
#        166079
#        183666
#        196897
#        209181
#        224058
#        238626
#        247382
#        261061
#
# Disc length: 3679 seconds
#
# Revision: 0
# Processed by: cddbd v1.5.2PL0 Copyright (c) Steve Scherf et al.
# Submitted via: ExactAudioCopy v0.99pb5
#
DISCID=350e5d14
DTITLE=Various Artist - Boleros de Oro, Vol 3
DYEAR=2006
DGENRE=Blues
TTITLE0=Dos gardenias
TTITLE1=¿Que te pedi?
TTITLE2=Esto si se llama querer
TTITLE3=La vida es un sueño
TTITLE4=Inolvidable
TTITLE5=La ultima noche
TTITLE6=Comprension
TTITLE7=Alma libre
TTITLE8=Vendaval sin rumbo
TTITLE9=Nuestras vidas
TTITLE10=Total
TTITLE11=Mil congojas
TTITLE12=No te importe saber
TTITLE13=Mentiras tuyas
TTITLE14=Plazos traicioneros
TTITLE15=Vete
TTITLE16=En nosotros
TTITLE17=No puedo ser feliz
TTITLE18=Cosas del alma
TTITLE19=Alma con alma
EXTD=
EXTT0=
EXTT1=
EXTT2=
EXTT3=
EXTT4=
EXTT5=
EXTT6=
EXTT7=
EXTT8=
EXTT9=
EXTT10=
EXTT11=
EXTT12=
EXTT13=
EXTT14=
EXTT15=
EXTT16=
EXTT17=
EXTT18=
EXTT19=
PLAYORDER=
